<?xml version="1.0" encoding="UTF-8" standalone="no"?>
<!DOCTYPE svg PUBLIC "-//W3C//DTD SVG 1.1//EN"
 "http://www.w3.org/Graphics/SVG/1.1/DTD/svg11.dtd">
<!-- Generated by graphviz version 2.50.0 (20211204.2007)
 -->
<!-- Title: SEQ_DIAGRAM Pages: 1 -->
<svg width="800pt" height="248pt"
 viewBox="0.00 0.00 800.00 248.00" xmlns="http://www.w3.org/2000/svg" xmlns:xlink="http://www.w3.org/1999/xlink">
<g id="graph0" class="graph" transform="scale(1 1) rotate(0) translate(4 244)">
<title>SEQ_DIAGRAM</title>
<polygon fill="white" stroke="transparent" points="-4,4 -4,-244 796,-244 796,4 -4,4"/>
<!-- ext_a -->
<!-- c1 -->
<g id="node15" class="node">
<title>c1</title>
</g>
<!-- ext_a&#45;&gt;c1 -->
<!-- api_a -->
<g id="node2" class="node">
<title>api_a</title>
<polygon fill="none" stroke="black" points="360,-240 216,-240 216,-190 360,-190 360,-240"/>
<text text-anchor="middle" x="288" y="-211.3" font-family="Times,serif" font-size="14.00">API A</text>
</g>
<!-- a1 -->
<g id="node5" class="node">
<title>a1</title>
</g>
<!-- api_a&#45;&gt;a1 -->
<g id="edge1" class="edge">
<title>api_a&#45;&gt;a1</title>
<path fill="none" stroke="black" stroke-dasharray="5,2" d="M288,-189.89C288,-173.37 288,-154.24 288,-153.06"/>
</g>
<!-- api_b -->
<g id="node3" class="node">
<title>api_b</title>
<polygon fill="none" stroke="black" points="576,-240 432,-240 432,-190 576,-190 576,-240"/>
<text text-anchor="middle" x="504" y="-211.3" font-family="Times,serif" font-size="14.00">API B</text>
</g>
<!-- b1 -->
<g id="node10" class="node">
<title>b1</title>
</g>
<!-- api_b&#45;&gt;b1 -->
<g id="edge5" class="edge">
<title>api_b&#45;&gt;b1</title>
<path fill="none" stroke="black" stroke-dasharray="5,2" d="M504,-189.89C504,-173.37 504,-154.24 504,-153.06"/>
</g>
<!-- ext_b -->
<!-- d1 -->
<g id="node20" class="node">
<title>d1</title>
</g>
<!-- ext_b&#45;&gt;d1 -->
<!-- a2 -->
<g id="node6" class="node">
<title>a2</title>
</g>
<!-- a1&#45;&gt;a2 -->
<g id="edge21" class="edge">
<title>a1&#45;&gt;a2</title>
<path fill="none" stroke="black" stroke-dasharray="5,2" d="M288,-151.89C288,-149.79 288,-117.14 288,-115.1"/>
</g>
<!-- a1&#45;&gt;b1 -->
<g id="edge19" class="edge">
<title>a1&#45;&gt;b1</title>
<path fill="none" stroke="black" d="M288.62,-152.5C300.89,-152.5 491.52,-152.5 503.42,-152.5"/>
<text text-anchor="middle" x="396" y="-159.3" font-family="Times,serif" font-size="14.00">activate()</text>
</g>
<!-- a3 -->
<g id="node7" class="node">
<title>a3</title>
</g>
<!-- a2&#45;&gt;a3 -->
<g id="edge2" class="edge">
<title>a2&#45;&gt;a3</title>
<path fill="none" stroke="black" stroke-dasharray="5,2" d="M288,-113.89C288,-111.79 288,-79.14 288,-77.1"/>
</g>
<!-- b2 -->
<g id="node11" class="node">
<title>b2</title>
</g>
<!-- a2&#45;&gt;b2 -->
<!-- a4 -->
<g id="node8" class="node">
<title>a4</title>
</g>
<!-- a3&#45;&gt;a4 -->
<g id="edge3" class="edge">
<title>a3&#45;&gt;a4</title>
<path fill="none" stroke="black" stroke-width="10" d="M288,-75.89C288,-73.79 288,-41.14 288,-39.1"/>
</g>
<!-- b3 -->
<g id="node12" class="node">
<title>b3</title>
</g>
<!-- a3&#45;&gt;b3 -->
<g id="edge25" class="edge">
<title>a3&#45;&gt;b3</title>
<path fill="none" stroke="black" d="M298.86,-76.5C341.12,-76.5 492.84,-76.5 503.42,-76.5"/>
<polygon fill="black" stroke="black" points="298.62,-73 288.62,-76.5 298.62,-80 298.62,-73"/>
<text text-anchor="middle" x="396" y="-83.3" font-family="Times,serif" font-size="14.00">place_order()</text>
</g>
<!-- a5 -->
<g id="node9" class="node">
<title>a5</title>
</g>
<!-- a4&#45;&gt;a5 -->
<g id="edge4" class="edge">
<title>a4&#45;&gt;a5</title>
<path fill="none" stroke="black" stroke-dasharray="5,2" d="M288,-37.89C288,-35.79 288,-3.14 288,-1.1"/>
</g>
<!-- b4 -->
<g id="node13" class="node">
<title>b4</title>
</g>
<!-- a4&#45;&gt;b4 -->
<g id="edge27" class="edge">
<title>a4&#45;&gt;b4</title>
<path fill="none" stroke="black" d="M288.62,-38.5C299.53,-38.5 451.28,-38.5 493.29,-38.5"/>
<polygon fill="black" stroke="black" points="493.42,-42 503.42,-38.5 493.42,-35 493.42,-42"/>
<text text-anchor="middle" x="396" y="-45.3" font-family="Times,serif" font-size="14.00">distribute()</text>
</g>
<!-- b5 -->
<g id="node14" class="node">
<title>b5</title>
</g>
<!-- a5&#45;&gt;b5 -->
<!-- b1&#45;&gt;b2 -->
<g id="edge22" class="edge">
<title>b1&#45;&gt;b2</title>
<path fill="none" stroke="black" stroke-dasharray="5,2" d="M504,-151.89C504,-149.79 504,-117.14 504,-115.1"/>
</g>
<!-- b2&#45;&gt;b3 -->
<g id="edge6" class="edge">
<title>b2&#45;&gt;b3</title>
<path fill="none" stroke="black" stroke-dasharray="5,2" d="M504,-113.89C504,-111.79 504,-79.14 504,-77.1"/>
</g>
<!-- b3&#45;&gt;b4 -->
<g id="edge7" class="edge">
<title>b3&#45;&gt;b4</title>
<path fill="none" stroke="black" stroke-dasharray="5,2" d="M504,-75.89C504,-73.79 504,-41.14 504,-39.1"/>
</g>
<!-- b4&#45;&gt;b5 -->
<g id="edge8" class="edge">
<title>b4&#45;&gt;b5</title>
<path fill="none" stroke="black" stroke-width="5" d="M504,-37.89C504,-35.79 504,-3.14 504,-1.1"/>
</g>
<!-- c1&#45;&gt;a1 -->
<g id="edge20" class="edge">
<title>c1&#45;&gt;a1</title>
<path fill="none" stroke="black" d="M72.84,-152.5C140.93,-152.5 209.02,-152.5 277.11,-152.5"/>
<polygon fill="black" stroke="black" points="277.16,-156 287.16,-152.5 277.16,-149 277.16,-156"/>
</g>
<!-- c2 -->
<g id="node16" class="node">
<title>c2</title>
</g>
<!-- c1&#45;&gt;c2 -->
<!-- c2&#45;&gt;a2 -->
<g id="edge24" class="edge">
<title>c2&#45;&gt;a2</title>
<path fill="none" stroke="black" d="M82.86,-114.5C125.12,-114.5 276.84,-114.5 287.42,-114.5"/>
<polygon fill="black" stroke="black" points="82.62,-111 72.62,-114.5 82.62,-118 82.62,-111"/>
<text text-anchor="middle" x="180" y="-121.3" font-family="Times,serif" font-size="14.00">refund()</text>
</g>
<!-- c3 -->
<g id="node17" class="node">
<title>c3</title>
</g>
<!-- c2&#45;&gt;c3 -->
<!-- c3&#45;&gt;a3 -->
<g id="edge26" class="edge">
<title>c3&#45;&gt;a3</title>
<path fill="none" stroke="black" d="M72.84,-76.5C144.28,-76.5 215.72,-76.5 287.16,-76.5"/>
</g>
<!-- c4 -->
<g id="node18" class="node">
<title>c4</title>
</g>
<!-- c3&#45;&gt;c4 -->
<!-- c5 -->
<g id="node19" class="node">
<title>c5</title>
</g>
<!-- c4&#45;&gt;c5 -->
<!-- c5&#45;&gt;a5 -->
<g id="edge29" class="edge">
<title>c5&#45;&gt;a5</title>
<path fill="none" stroke="black" d="M72.62,-0.5C83.53,-0.5 235.28,-0.5 277.29,-0.5"/>
<polygon fill="black" stroke="black" points="277.42,-4 287.42,-0.5 277.42,3 277.42,-4"/>
<text text-anchor="middle" x="180" y="-7.3" font-family="Times,serif" font-size="14.00">bill_order()</text>
</g>
<!-- d2 -->
<g id="node21" class="node">
<title>d2</title>
</g>
<!-- d1&#45;&gt;d2 -->
<!-- d3 -->
<g id="node22" class="node">
<title>d3</title>
</g>
<!-- d2&#45;&gt;d3 -->
<!-- d4 -->
<g id="node23" class="node">
<title>d4</title>
</g>
<!-- d3&#45;&gt;d4 -->
<!-- d5 -->
<g id="node24" class="node">
<title>d5</title>
</g>
<!-- d4&#45;&gt;d5 -->
</g>
</svg>
